<svg width="650" height="650" version="1.1" viewBox="0 0 19.5 19.5" xmlns="http://www.w3.org/2000/svg">
 <path d="m.75 12c.41421 0 .75.3358.75.75 0 1.4354.00159 2.4365.10315 3.1919.09865.7338.2791 1.1223.55586 1.3991s.66534.4572 1.3991.5559c.75535.1015 1.7565.1031 3.1919.1031h6c1.4354 0 2.4365-.0016 3.1919-.1031.7338-.0987 1.1223-.2791 1.3991-.5559s.4572-.6653.5559-1.3991c.1015-.7554.1031-1.7565.1031-3.1919 0-.4142.3358-.75.75-.75s.75.3358.75.75v.0549c0 1.3676 0 2.4699-.1165 3.3369-.121.9001-.3799 1.6579-.9818 2.2598-.602.602-1.3598.8609-2.2599.9819-.867.1165-1.9693.1165-3.3369.1165h-6.1098c-1.3676 0-2.4699 0-3.3369-.1165-.90011-.121-1.658-.3799-2.2599-.9818-.60192-.602-.86081-1.3598-.98183-2.2599-.11656-.867-.11654-1.9693-.11652-3.3369v-.0549c0-.4142.33579-.75.75-.75z" clip-rule="evenodd" fill="#f0f3f4" fill-rule="evenodd"/>
</svg>
