<svg width="700" height="700" version="1.1" viewBox="0 0 28 28" xmlns="http://www.w3.org/2000/svg">
 <path d="m.58536 15.413c-.78048-.7805-.78048-2.0459 0-2.8264l12.001-12.001c.7805-.78048 2.0459-.78048 2.8264 0l12.001 12.001c.7805.7805.7805 2.0459 0 2.8264l-12.001 12.001c-.7805.7805-2.0459.7805-2.8264 0z" fill="#ee513b"/>
 <path d="m10.149 3.0615-1.2153 1.2153 3.1389 3.1389c-.127.27242-.1979.57624-.1979.89663 0 .9096.5715 1.6857 1.375 1.9888v7.6786c-.8035.3031-1.375 1.0792-1.375 1.9888 0 1.1736.9514 2.125 2.125 2.125s2.125-.9514 2.125-2.125c0-.8246-.4697-1.5396-1.1562-1.8918v-7.7651l3.0005 3.0005c-.1208.2669-.188.5632-.188.8752 0 1.1736.9514 2.125 2.125 2.125s2.125-.9514 2.125-2.125-.9514-2.125-2.125-2.125c-.2281 0-.4477.0359-.6537.1024l-3.2225-3.2225c.0617-.199.0949-.4106.0949-.6299 0-1.1736-.9514-2.125-2.125-2.125-.2193 0-.4308.03323-.6299.09492z" fill="#ffffff"/>
</svg>
