<svg width="700" height="700" fill="none" version="1.1" viewBox="0 0 28 28" xmlns="http://www.w3.org/2000/svg">
 <path d="m11.016 0c-2.1971 0-3.9782 1.7245-3.9782 3.8518v2.6667h6.8852v.74074h-9.9454c-2.1971 0-3.9781 1.7245-3.9781 3.8518v5.7778c0 2.1273 1.7811 3.8518 3.9781 3.8518h2.2951v-3.2592c0-2.1273 1.7811-3.8519 3.9782-3.8519h7.3442c1.8591 0 3.3661-1.4592 3.3661-3.2592v-6.5186c0-2.1273-1.781-3.8518-3.9781-3.8518zm-.918 4.7407c.7605 0 1.377-.59696 1.377-1.3333 0-.73638-.6165-1.3333-1.377-1.3333-.7606 0-1.3771.59696-1.3771 1.3333 0 .73637.6165 1.3333 1.3771 1.3333z" clip-rule="evenodd" fill="url(#paint0_linear_87_8204)" fill-rule="evenodd" style="fill:url(#paint0_linear_87_8204)"/>
 <path d="m16.983 28c2.1971 0 3.9782-1.7245 3.9782-3.8518v-2.6667h-6.8853v-.7407h9.9454c2.1971 0 3.9781-1.7246 3.9781-3.8519v-5.7778c0-2.1273-1.781-3.8518-3.9781-3.8518h-2.2951v3.2592c0 2.1274-1.7811 3.8519-3.9781 3.8519h-7.3443c-1.8591 0-3.3661 1.4592-3.3661 3.2592v6.5186c0 2.1273 1.7811 3.8518 3.9781 3.8518zm.9181-4.7407c-.7606 0-1.3771.5969-1.3771 1.3333s.6165 1.3333 1.3771 1.3333c.7605 0 1.377-.5969 1.377-1.3333s-.6165-1.3333-1.377-1.3333z" clip-rule="evenodd" fill="url(#paint1_linear_87_8204)" fill-rule="evenodd" style="fill:url(#paint1_linear_87_8204)"/>
 <defs>
  <linearGradient id="paint0_linear_87_8204" x1="12.481" x2="12.481" y1="2" y2="22.741" gradientTransform="translate(-2,-2)" gradientUnits="userSpaceOnUse">
   <stop stop-color="#327EBD" offset="0"/>
   <stop stop-color="#1565A7" offset="1"/>
  </linearGradient>
  <linearGradient id="paint1_linear_87_8204" x1="19.519" x2="19.519" y1="9.2593" y2="30" gradientTransform="translate(-2,-2)" gradientUnits="userSpaceOnUse">
   <stop stop-color="#FFDA4B" offset="0"/>
   <stop stop-color="#F9C600" offset="1"/>
  </linearGradient>
 </defs>
</svg>
