<svg width="28" height="28" version="1.1" viewBox="0 0 28 28" xmlns="http://www.w3.org/2000/svg">
 <title>file_type_swagger</title>
 <path d="m28 14.001a14 14 0 11-4.1-9.9 13.956 13.956 0 014.1 9.9z" style="fill:#ffffff"/>
 <path d="m25.9 14.001a11.9 11.9 0 11-3.485-8.415 11.863 11.863 0 013.485 8.415z" style="fill:#6d9a00"/>
 <path d="m9.66 13.984a.938.938 0 01.977-.976.976.976 0 11-.977.976z" style="fill:#ffffff"/>
 <path d="m13.031 13.984a.938.938 0 01.977-.976.976.976 0 11-.977.976z" style="fill:#ffffff"/>
 <path d="m16.4 13.984a.938.938 0 01.977-.976.976.976 0 11-.977.976z" style="fill:#ffffff"/>
 <path d="m5.619 14.891v-1.748a2.824 2.824 0 00.881-.142 1.126 1.126 0 00.439-.441 2.1 2.1 0 00.254-.776 9.08 9.08 0 00.055-1.216 10.547 10.547 0 01.123-1.97 1.847 1.847 0 01.446-.9 1.72 1.72 0 01.81-.552 4.788 4.788 0 011.316-.131h.363v1.437a3.177 3.177 0 00-.977.091.63.63 0 00-.319.277 3.372 3.372 0 00-.1.941q0 .459-.062 1.741a4.639 4.639 0 01-.178 1.169 2.435 2.435 0 01-.367.739 2.939 2.939 0 01-.682.6 2.432 2.432 0 01.662.579 2.377 2.377 0 01.394.8 5.8 5.8 0 01.178 1.267q.048 1.209.048 1.544a3.034 3.034 0 00.11.932.694.694 0 00.333.288 2.927 2.927 0 00.963.1v1.486h-.363a3.843 3.843 0 01-1.292-.192 1.905 1.905 0 01-.834-.513 1.875 1.875 0 01-.456-.9 8.724 8.724 0 01-.117-1.686 8.414 8.414 0 00-.11-1.741 1.553 1.553 0 00-.456-.834 2.106 2.106 0 00-1.062-.249z" style="fill:#ffffff"/>
 <path d="m21.285 15.144a1.553 1.553 0 00-.456.834 8.414 8.414 0 00-.11 1.741 8.724 8.724 0 01-.119 1.682 1.875 1.875 0 01-.456.9 1.905 1.905 0 01-.833.521 3.843 3.843 0 01-1.292.192h-.363v-1.483a2.927 2.927 0 00.963-.1.694.694 0 00.333-.288 3.034 3.034 0 00.11-.932q0-.335.048-1.544a5.8 5.8 0 01.18-1.266 2.377 2.377 0 01.394-.8 2.432 2.432 0 01.662-.579 2.939 2.939 0 01-.682-.6 2.435 2.435 0 01-.367-.739 4.639 4.639 0 01-.178-1.169q-.062-1.282-.062-1.741a3.372 3.372 0 00-.1-.941.63.63 0 00-.319-.277 3.177 3.177 0 00-.977-.091v-1.447h.363a4.788 4.788 0 011.316.131 1.72 1.72 0 01.81.552 1.847 1.847 0 01.446.9 10.547 10.547 0 01.123 1.97 9.08 9.08 0 00.055 1.216 2.1 2.1 0 00.254.776 1.126 1.126 0 00.439.441 2.824 2.824 0 00.883.144v1.744a2.106 2.106 0 00-1.065.253z" style="fill:#ffffff"/>
</svg>
