<svg width="700" height="368.25" version="1.1" viewBox="0 0 28 14.73" xmlns="http://www.w3.org/2000/svg">
 <defs>
  <radialGradient id="a" cx="-16.114" cy="20.532" r="18.384" gradientTransform="translate(24.52,-17.942)" gradientUnits="userSpaceOnUse">
   <stop stop-color="#ffffff" offset="0"/>
   <stop stop-color="#4c6b96" offset=".5"/>
   <stop stop-color="#231f20" offset="1"/>
  </radialGradient>
 </defs>
 <title>file_type_php</title>
 <ellipse cx="14" cy="7.365" rx="14" ry="7.365" style="fill:url(#a)"/>
 <ellipse cx="14" cy="7.365" rx="13.453" ry="6.818" style="fill:#6280b6"/>
 <path d="m16.725 9.565.667-3.434a1.752 1.752 0 00-.372-1.719 2.929 2.929 0 00-2-.525h-1.153l.331-1.7a.219.219 0 00-.215-.26h-1.6a.219.219 0 00-.215.177l-.709 3.646a2.051 2.051 0 00-.477-1.054 2.783 2.783 0 00-2.2-.807h-3.082a.219.219 0 00-.215.177l-1.434 7.38a.219.219 0 00.215.26h1.603a.219.219 0 00.215-.177l.347-1.785h1.2a5.167 5.167 0 001.568-.2 3.068 3.068 0 001.15-.689 3.538 3.538 0 00.68-.844l-.287 1.475a.219.219 0 00.215.26h1.6a.219.219 0 00.215-.177l.787-4.051h1.094c.466 0 .6.093.64.133s.1.165.025.569l-.635 3.265a.219.219 0 00.215.26h1.62a.219.219 0 00.207-.18zm-7.395-2.834a1.749 1.749 0 01-.561 1.092 2.171 2.171 0 01-1.315.321h-.712l.515-2.651h.921c.677 0 .949.145 1.059.266a1.181 1.181 0 01.093.972z" style="fill:#ffffff"/>
 <path d="m23.546 4.697a2.783 2.783 0 00-2.2-.807h-3.091a.219.219 0 00-.215.177l-1.434 7.38a.219.219 0 00.215.26h1.608a.219.219 0 00.215-.177l.347-1.785h1.2a5.167 5.167 0 001.568-.2 3.068 3.068 0 001.15-.689 3.425 3.425 0 001.076-1.927 2.512 2.512 0 00-.439-2.232zm-1.667 2.034a1.749 1.749 0 01-.561 1.092 2.171 2.171 0 01-1.318.32h-.71l.515-2.651h.921c.677 0 .949.145 1.059.266a1.181 1.181 0 01.094.973z" style="fill:#ffffff"/>
 <path d="m8.178 5.273a1.645 1.645 0 011.221.338 1.34 1.34 0 01.145 1.161 1.945 1.945 0 01-.642 1.223 2.361 2.361 0 01-1.448.37h-.978l.6-3.089zm-3.917 6.216h1.608l.381-1.962h1.377a4.931 4.931 0 001.5-.191 2.84 2.84 0 001.07-.642 3.207 3.207 0 001.01-1.808 2.3 2.3 0 00-.385-2.044 2.568 2.568 0 00-2.035-.732h-3.087z" style="fill:#000004"/>
 <path d="m12.387 2.147h1.6l-.387 1.962h1.421a2.767 2.767 0 011.85.468 1.548 1.548 0 01.305 1.516l-.667 3.434h-1.619l.635-3.265a.886.886 0 00-.08-.76 1.121 1.121 0 00-.8-.2h-1.275l-.822 4.228h-1.6z" style="fill:#000004"/>
 <path d="m20.727 5.273a1.645 1.645 0 011.221.338 1.34 1.34 0 01.145 1.161 1.945 1.945 0 01-.642 1.223 2.361 2.361 0 01-1.451.37h-.978l.6-3.089zm-3.917 6.216h1.608l.381-1.962h1.377a4.931 4.931 0 001.5-.191 2.84 2.84 0 001.07-.642 3.207 3.207 0 001.01-1.808 2.3 2.3 0 00-.385-2.044 2.568 2.568 0 00-2.035-.732h-3.092z" style="fill:#000004"/>
</svg>
