<svg width="699.4" height="700.28" fill="none" version="1.1" viewBox="0 0 27.976 28.011" xmlns="http://www.w3.org/2000/svg">
 <title>file_type_vite</title>
 <path d="m27.884 4.146-13.142 23.5c-.2714.4851-.9684.488-1.2439.0052l-13.402-23.503c-.3-.5262.1498-1.1635.746-1.057l13.156 2.3516a.7144.7144 0 00.2537-4e-4l12.881-2.3478c.5942-.1083 1.0463.5241.7515 1.0513z" fill="url(#paint0_linear)" style="fill:url(#paint0_linear)"/>
 <path d="m20.264.0069042-9.7253 1.9056a.3571.3571 0 00-.2879.3294l-.5982 10.104c-.014.238.2045.4227.4367.3691l2.7077-.6248c.2534-.0585.4823.1647.4302.4194l-.8044 3.9393c-.0542.265.1947.4918.4536.4132l1.6724-.5082c.2593-.0787.5084.1487.4536.414l-1.2784 6.1877c-.08.387.4348.598.6495.2662l.1434-.2216 7.9247-15.815c.1327-.2648-.096-.5667-.387-.5106l-2.787.5379c-.262.0505-.4848-.1934-.4109-.4497l1.8191-6.306c.074-.2568-.1496-.5009-.4118-.4495z" fill="url(#paint1_linear)" style="fill:url(#paint1_linear)"/>
 <defs>
  <linearGradient id="paint0_linear" x1="6.0002" x2="235" y1="33" y2="344" gradientTransform="matrix(.07142 0 0 .07142 -.66025 -.1056)" gradientUnits="userSpaceOnUse">
   <stop stop-color="#41D1FF" offset="0"/>
   <stop stop-color="#BD34FE" offset="1"/>
  </linearGradient>
  <linearGradient id="paint1_linear" x1="194.65" x2="236.08" y1="8.8182" y2="292.99" gradientTransform="matrix(.07142 0 0 .07142 -.66025 -.1056)" gradientUnits="userSpaceOnUse">
   <stop stop-color="#FFEA83" offset="0"/>
   <stop stop-color="#FFDD35" offset=".0833"/>
   <stop stop-color="#FFA800" offset="1"/>
  </linearGradient>
 </defs>
</svg>
